<mxfile host="65bd71144e" modified="2020-11-27T09:41:38.164Z" agent="5.0 (Macintosh; Intel Mac OS X 10_15_7) AppleWebKit/537.36 (KHTML, like Gecko) Code/1.51.1 Chrome/83.0.4103.122 Electron/9.3.3 Safari/537.36" etag="DTZp4jvjEUfhX9Jfhd0U" version="13.6.5">
    <diagram id="SxygmlJjNX2eUdEY5aC9" name="Page-1">
        <mxGraphModel dx="1070" dy="1133" grid="1" gridSize="10" guides="1" tooltips="1" connect="1" arrows="1" fold="1" page="1" pageScale="1" pageWidth="850" pageHeight="1100" background="none" math="0" shadow="0">
            <root>
                <mxCell id="0"/>
                <mxCell id="1" parent="0"/>
                <mxCell id="87" value="" style="rounded=0;whiteSpace=wrap;html=1;fontStyle=1" parent="1" vertex="1">
                    <mxGeometry x="40" y="20" width="810" height="610" as="geometry"/>
                </mxCell>
                <mxCell id="48" value="" style="group" parent="1" vertex="1" connectable="0">
                    <mxGeometry x="180" y="470" width="500" height="150" as="geometry"/>
                </mxCell>
                <mxCell id="49" value="&lt;font color=&quot;#000000&quot;&gt;global&lt;/font&gt;" style="outlineConnect=0;gradientColor=none;html=1;whiteSpace=wrap;fontSize=12;fontStyle=0;shape=mxgraph.aws4.group;grIcon=mxgraph.aws4.group_region;strokeColor=#879196;fillColor=none;verticalAlign=top;align=left;spacingLeft=30;fontColor=#879196;dashed=1;container=1;" parent="48" vertex="1">
                    <mxGeometry width="500" height="150" as="geometry"/>
                </mxCell>
                <mxCell id="64" value="&lt;b&gt;IAM Role&lt;/b&gt;" style="text;html=1;align=center;verticalAlign=middle;resizable=0;points=[];autosize=1;" parent="49" vertex="1">
                    <mxGeometry x="234.30133512544802" y="98.28999999999999" width="70" height="20" as="geometry"/>
                </mxCell>
                <mxCell id="63" value="" style="outlineConnect=0;fontColor=#232F3E;gradientColor=none;fillColor=#C7131F;strokeColor=none;dashed=0;verticalLabelPosition=bottom;verticalAlign=top;align=center;html=1;fontSize=12;fontStyle=0;aspect=fixed;pointerEvents=1;shape=mxgraph.aws4.role;" parent="49" vertex="1">
                    <mxGeometry x="299.30555555555554" y="101.25" width="30.208333333333332" height="17.041666666666664" as="geometry"/>
                </mxCell>
                <mxCell id="82" style="edgeStyle=orthogonalEdgeStyle;rounded=0;orthogonalLoop=1;jettySize=auto;html=1;endArrow=none;endFill=0;" parent="49" source="61" target="63" edge="1">
                    <mxGeometry relative="1" as="geometry"/>
                </mxCell>
                <mxCell id="61" value="" style="shape=image;verticalLabelPosition=bottom;labelBackgroundColor=#ffffff;verticalAlign=top;aspect=fixed;imageAspect=0;image=data:image/png,iVBORw0KGgoAAAANSUhEUgAAAFAAAABQCAYAAACOEfKtAAAAAXNSR0IArs4c6QAAAERlWElmTU0AKgAAAAgAAYdpAAQAAAABAAAAGgAAAAAAA6ABAAMAAAABAAEAAKACAAQAAAABAAAAUKADAAQAAAABAAAAUAAAAAAx4ExPAAAdCElEQVR4Ac2cCdTnVVnH7zuMOgzgwAACKoi74r4vBHpENNw1zdRUNJcyLUttOaflWKeDViqmmZqQHs/JEjRXBBXtuJcabpiaKIEg68wwzgwgM/P2fL7f57n3/t950cqs7jv/3733eZ7v91nu/S3/BZa+cecXLre21FpbbktL9DGLXqNpLnnqAhA2ZWeM9AZJB2fCxWe9eY23Pj2hXrAb8z3jGvgZnXjiIvrqxQtb8ROkOUeeEtl/4aoXLg7qEcZreeDXxjgaAnraUugVYoyltDQMbJoJxUR2iaviY1ycyiI50Js3EwmjwZ4yeZp4u4F9gkckXzOevKgYjbiKGZE4Qhtj+5/iRykF+NEqzi5cBk/88GUsmMd4TRmjVIDLu8VUQSiwUHY7cLLwocvTZjnxZeJkzY1MMaSyfBIo/uw/2bMjPxq2cxMPPsVo/O6Modth1Lm7VIOOT2Lmwu9mtNjsZRV5YNfY1EpzZaVRhNgFUhSjiCsDxdYmGhgDZ7ieAlootiFxxIe6UQwJHDZJdW2Oi0e1VYxYaCZTIcO2eoQL4+RfubgCd1vHVb7oPaaPTQZHrO5akWtCCD7NvOoxjr9qcmZjibpGWzu2dUiFD0zZ2iEa9JkgwBhWYD6FLMQvcuOZyFV0JfOc45545eO88CayYe+cTEkk4DOU7geMfOmUlZFixbDnFOLCwx7XwAwui4iaoRu6NQ62vGUkRYhxBbu85LGTkxvp4LOfYLW4B1T4wijvEcDAU8QKCxolG5KwXVMxhoXk4MvPGm8Kh19LbDyFQb4mbaA3L9Jo0dVc8cMff2iR03QKV/CVKIoh8zVRAaGoFsa2wc9wuChz8Fikv0ILO2wjIDSrcJaNw+1wTMVRJVG9Ch8T9LT5EhIzC5EnHsf2kYUWkHEYoeMSJJgLBwH56i+MtAMVvYxGZW2WickhO2ApLrS7Xf2qSHmyF9kUn3YkHkNAkKza7ggIqFc2vCCXjQ/4WMRbqyQDSEJg4aApHmFSkPFoUdMITcfL38CrQGFQfCING5cjORGCC6PuT4axA7Nunoa9K5u7LpTEI+dwxJ8SFJ+Ri3ivUtlDajyjwbNyLCWHCBA+3Q1TCJf5FJyLGzrf7Re8C1H4hCsA8Ip7Mp9j7LbiXZb/LssEVErG2Qq/VhkGfa+5liLmYbsU1zQ35jmGSbpMqCOxZJV8Y7c9YRtnuFceHauJKrV2E0ftLlF5uRjKZfo3I/jEmkDxIfPunOKFIJp8Rj/wRFZgj/HzY/HhpOIHrx2YNPgJpZ3VGJeWIcHFaBAV1r3Jkaupn/CCF8I7LcsweMQ58EDsJ2QxsUfrux87S5dhERx2NXjkR/jyaN7hWHD76nHP+NCreIv4fhPB1AE5gAqagCtQyeIaBH/JcFvj3idGnDM+sHV6lu2q+OQ3PvlLpgIjA+nm09mLhwTu8lNzCjXiHjl1feJqvhAfwmjISl7Pp3EKh4aVCaVWTaZ5yKB1ug2R7EQUK6KzHOC6G7SDX/K4tu/D7t722rDPzPJTGS//cGfb8befaNtPOTvjyZtbequYK+GRG0lFseMPG/WBobgx7a3GhUdRnGGddku8leOpuuNcZWinaqOd5yb1itdKULwNTzr6f6V4xLN0w7Vt/VOPVVzMq1Wc1SNXoZSPc1X8UayyqfTptXMzd9klHp6au3f+aw2Oowa+yLNCWtZcBgCj+lDRjNQo7Pc9/u6SXvi0V7Vrz73QuznwtaiFHz3m1lpmH0LIfcaQVgNnzKGfOUlFJIwpEqrVfeJByUb8kmNoeMj7UIMqTvkpU+ycP2wDUzu3XwNRIgSoPpAAi9j94hxyGrq99vdpe83XLkic5YWva1LNwY4xRF5R+ccvfzaSj5V4CfMweEKQvMj8wmhw1xlTerSFB2u8ZbJBEEUvmwV86PzMsUACy2LLdILEcl+0F21qVo4USQgzpgKqdzEc2Epc4buv5Cg7+kpilg0cHikYWrabo2dGQ9Lx/UI3CoT1aFQuZhWMFDxMl018mFDjiasD7B4UpzYzO2JsHETDSgYxdzKLcmFMYK6Ays60nT9Nolvktk8HXrHY9npkC+7zhhFBi5VccgwHKfQTPwx6ETsH+We8oZX/tFvl80AHpODEHgeqlQ6H1ha18sPU72IqCAUGFo5oHGeOLk+blbu7B/uj8CTH3+SnnOS6KwUFkAfFgX0a0uvMSD8yw6hzz+jMI2zzFM6UqlMgAYj5ygQR8n7QcpaIlkCNa3da3O1W5RLABwXKsHYwnJFWPDtWm2MpGX3l3IshATMXxbYxS8PqFb3iwqJykVfZiqEwsNU4+Vnc+DwQheHLubW16kpoBC8ZflIEOQ15ETNn7FUPeRmnHXo5o9MkDoknfHYrmPJlXjQhqwQBjlzNo4TGaWa8Eghj0INTAmTCxCBzRl5DfImjB2kdNuUePGNdA1UEnEASf52ceSaoxPHAK+X02DpgZm4VG+5u/9XXlVj9t+/+YvVgbnXOaxZ0373Xb3Z/t/jCqxZ0F9znZXaN+ykx4uoxKnHHVGDrgDi/BTkZB/4n+Txxeoxx4XyHgdiuRjGHTMUMx6WrHkSN3ZPt9bRR5WEQPgs/hB7luq0Ua06o8jTHlAkU38pIcI9OGyaLy1z2pFr5T5eQkHb/hV/l80BsvD2X6oEaCc4ii+XdcZOIvgIqh525D8zxzbu8SDjEPViqES92o3gmPjGH8Px7vURVQY9f4aOvzxMliAMLbq0lhSdXfx5preMkfueRlLqeG5MsqlzYQVB+g7rj5S8Qae6byCgspjZ2PBpXkVwSK3THknUalr3wvhMTA/EIL1uvOKZDlkC6iIpQSofIeEaLcktWHBNfsRXGfJEx5L1OxIhgsSHxWZjyCAC8ijyZV4zageMaAojqRiJEns6QFkClh5AlwEZtMsy54D/FzxPTcYZQcbAGSlWxkTaNY8WPlo2g8FEmFD0y4WNQ9pjQpI9+4M3T34nICkP+VJhBwlwFIRQcTk6nqSiwK+eiIWDJUDshGcZBvDkxpX0WXsAZL7gti6OCKak5cxaOgXSZwkdnffcjsiFDbleDRxjhC21efaBaW16EgZFDZy/rPoxBOa0e3/MYQOFj5L8kkDyuQUxnTI17XxxK1XzyE9iKlXm1jut+zE/6eslhymJsWaGRczovbpjZj/gVszlgLZ98Z4m0CwatxHk9kEs7VlCTPaq5zXOoF+5iuHYjAI1TUAFZqPUPw7CZ8YixLxJT6djxk4zhHvLElzyjCLu8bidel6jEL7qLGf+oW7R+DdQsDqWouYl8GoJkjg3ffbBKMYvXuBIIX4kGyRwInANvHsJYw8WHpti8G2q+gA994aWPA3dlvtetpoIzhVNxWqe4JvwS3wWzOKEuH3Cslv/wSa5kHH1+l9y/lQO4Egz5IA1nZKiXpBxSstx2bt6m+d53uUUIE5iF2YN3QsIQruW7doPUHK4Hf6O7HimTXVu2q+94BtVyuGpeYdNN5dtz2RY+e8ni0U10Mz3jeE0/7aCyWpA0Hta1Ait7fJTsqrP+pR34C8e2W5/2O4ivt/Ecufkdn2yXnXRa2MR6Rq0J8mZveH7b95g7XS9uNcX2s86RGHzFkYQ9ES1lONHZYmeypYLKN2QDX7CRu2O0DdzYcsbQ0/xOJAYlqB4l25WGDHtjBtjuZNIujoJc+XefaDtzV1i653FpzZq28WkPavs/5dgF5X+leLtit29956fa5td9oHNU3KO3ijTnciDtN4g8UZANHNbkiBQDCj0YkIBXi0IuffbwZ9qUCS9BDGVOk9zDPreFdbYZY80Tl4DOvd/D7tEOP/k5jS+Fzn/Ga9q18Qk27Q5f83vmb93112Pma02uX/rPWEJbcYGr8YhxBGqdd2e3mzDw1yYxfmAXdcNP+ZRl1Kd/HkjJuaj26mKZre/AmI+1QMnOtITOdsOij6wUduuHz2mb3v5xfZ9x81c/uy3deO/04q7uhrXqSpDYyo+8DkiXp03hy0KFy9iQEVPF5bBiFtXA30L8aZR7KHTF6J4p9uP2CUu1HswUODLuWvGPO58DL0yyVyc8HuwE2hHccvv+n72r7fjyd9sNbnpgu+lJz7AhRmp1+sSk45Vh+py5EkJnEw0cG8FkzOijWZ74mPfoK24cdrvAxt/YUJXz4AHva2AWRBCShyVKn7y9R1xtLogCS1wF2Vc1AMUnLJPrdrcLX/yWuF5ua/s96M5t43OOL9pM0p4VT6AV0ZytFiik6VPXtBjjqPvHb8XkCOzD1NaVnn6S2zBXZAVnBSruAOVzYDxPxx+nC39zED4FlIKK6ihjmM9eOMbG+NYOeOz920Hxfe2629287bXvuvLX+6/d8QUa77x0S7vot97WjnjTC9rBL3p01zOoZG7/1b9YkP8kk93br2nXffv7bfu7P9d2nHlOv3biTPHLaWRP3SqAcGgdWVOf0ZyzPpF2wRaAWLIi0bO6GAucTkTDykBK8UK+137r2xEnPb0dcMK9h5frG2WA2z55brvijWe2g3/lhG4JV3F24f/AYM0+69qN7nZLvdYde6e2+U9Ob8tRVBdCqVK5TLs2RNUm85/icAragfGTiPjr9Y1PUDyPfrXPA0FWQYNQqxXVPfyPnqri8UB98StPbz/49NfbzkuuUmQESWTqPfCCBP6yeBTZ+x63avve//ZTeAyX2zf4LDFGxkGVieEfTnQ6oHFDXjqEyJnvdZMNbe/73a5t+LVHtfXH3bW1nbvapj94h+IvrKgKxAbJWiB3nuE/Lnf2gbSugR77CNDl1ZxxB092uu7k/MbHxnXsMfdrO7fuaN947B+3K0//dLvuki0r8JQkyLMVHu7vvfSU9sMLLm/XfvdS2fQ7qWIZ8WjHZ6kqxsEYxFEo5qXDFanw2nXZVW3b+z/fLnn6yW33tqvb+offo617wIpFS3zFZnzmj1/Is9qOMe7CkM+GnkYgoVDCpe83mgwQOTbxuskzjxPH909+b/vhRZtiPOGlMcaciUeO83jtunJb+7dHvryd98ST0hq8DDCSTNgQ6s9Kq5D11/hAwLLBUfNdsbBXveksce7zpAdmCIMDhWokzvJOmLYhHMY0jtNjjIUwdgMMKbwAeZJj1k092Cffm279xLlTgi6iHIkTqlzFCd/pdsb7zat/iPvJP2gXUyGAn5qSyrkpc+FsDFFoJ7wr067+7DeFuuFRh0dvpI/2HRUwa+CB2E/IFD4665HrvTDf8/ZvpmIb23EmLHPAQmtWQ5GHZK8D9o1ja1d/9xL93K0CwA5fuDOtHXMNwTlqGuM0qM6KboDamE4Wg7ryias46TEqpzkWnrMoOK+78Arxr9mwXv0eeIWZMWGhWJOXefgwf+xABY+/FZ+HhZVsuB4sNpdHOBSQQ0iLAOcG1HjkicvRwBtRcchpkQRMD+81F3bYy5sOhFED9KPyC3jEmO2yLe/Lq3V8CbLfQw40XiXvnwfiX4WtQJLAxfHqUwLNw4ZPJLhzHnLiQxdcFnEJC7/+XrdphzznYW39XW+pCHbEe+DL33JW2/GFb0e6kUjmLHwlGpa1OMXLnHH15LP+nrduB5x4XFt3pzglQ3DN1y9oV73t4+2ac76ziFeOxld8B77yGW3bOz/drv3ieRKp4Ph3Ma4XX58nLv3jIU9d1sczYIRzJgQIR7VKpPpDn3V8O/LlTyu1+s8fGe9tE6Q+8Jxmh/zyCe2m8QPMecUB8NHWJSe/r13+pjOFx9bw7IlBmlHIwW/FxliUg170yFW5N/3lGe2qU8829xxXSI784uIX95v+/D1texRSHjPuck4Mw29GlLH5rRwrGkasJo2dxir7PS+SsWrI93/wXVS85XiWuuAVfK7nNvDBEXa89rn3bVS85bhJXPSn72pffcBL29ce+LJ2cbwfRnboix/T1t/r1iKQ3xiV/+JAyVga9Z6vu8etVby2a3e7PBbivIf8XvvOQ3+/XfHa98dpurtt/NVHxIPzkcB1KRFD4iWMw+bXfzDi2NU2vvRx7Ub3v51qIL9Zg3As03q0cRwhCjnjfhGoax3CWndX3Ybw8KId9ryfVf+917ynff+vztC4Dt1BCOA55LkP1+64OGwvjZ228/Kt7brLtrTL3nxWu+S175Pu4NhFHVdOijB6F5Y4LKzr9cZnHSf8Fa8/o2065SNt1xVb28543tt86kfblW/4kHQbTnyIiiJkElSuyLa+9eNty5s/LPWNf/HBPY7uKzTpVjYcqpiRnm8iPfg0YT5eCLnmuEe+z91uJcvL44F5JVZWE349H/FH2/yez8YRXj+rEeCV70YW17A7H6meA8GW7xjkGI1PHfvjjIjftd/5CBRty3v/Sb0PPlu2vu+fNV131BHiYFLcZrI1fNs++AVN/FiD/4qhepBj7FI4tv/k54EmNYuYNGw32KsHh4AL8Ly6NvJRQWEzC6fZCHpY9JGVLsACfkwGPhdo4qYitdBwdl7GoVtau1cSjQUuZp2FAVgNj8+8Bpa5qTGeX2iZ65oY421fOR9RO+A4/7Bck/kw4ben7cbHP8CPJOGiPk9ERtvx1fPVV2b2HaI58OREWL9P5PfYtA2Pua/6MInm3XnjR1t2zbnYxJ5ZwSVAHvY+5iiNrv36hbLFvwABmh+DLA8NsciSL5UgzimnqYy4w8SrjNDXdRFPl7z9Y23/nzmq3eJ3n8S0N/EINPCXvPnMtv9xd2s3/Y3HyW5TnrYbn/CAdtiLH6s78aV/HW+tCMoB+I6nnCFzq7ugggoRvq489SNt3wfdqR38wkfK6Ko8bfd/3P3aQXED4S6/6a1ny3bgByeg/Z5yTDsg7uK0H5z+WeVfti4YJ+yUfxalirl09kFPjrgx8kVfOcS4Hm3oq2mYBrd55Ynt0Kf7PXDpP3fEiSq0Cp448Ie94BHtZi99gi7qZUtPghe/+r3tsjd+iJkKx0LN+BFbmARXnzMO0UHPe3g7OD5hWe0R6Yr4pGdz/Ic4vQABKPxtvnRyyEfbetpn2pWvON36KJLtiEknqQxJqfD0+FcBowuFySTMCUYqeBpjMRMc+Kj7tsOe9dC24f53EDi+oIIJut4XZr/73LYd+vwTWr1v3hGnNjtvezxIlw2JOhYHB0/pUhKFCmHs1jkOHoMOfPbx/abCqb3pb87Wg3RfmCknOKuAV4f/rad9uu34yJfla469+ySfFXjFFYeljx748/H2UBmLAMNubEnOF4MuGwI8+qK3y/IzN48Czs6SV7ZT0hjNO7sHTUDyL7oQOy7jKwltjx+DDxyLAVdywsisdvdtv/xaRO08fjGbdsztHxQT/ZNM07CLNDDvsrE/ZR+aMNCFM3oaDvmDKkWScyGXMUdYadod0zxE6KTHuYx86M9STGdFTDofqo7HbBgWfkjCWOGD950Yc0IrPvAqaX0dEZeQRbxjLHuFlhweD+uy0eeBECPojyA9EDLwC32BZJfEBFg/61h35CEZECslVuOh+BGfJ1Zw9sFswjONVv4VDk4tRCEfpbcCvAziYNvSE9Xaww+S2e4tO4Tvuio8KOKfOMbcOhGEPnagHUjQgekUXRYTuxiKOJk9Dtm2L31HcN7iocMZTT14zY2Xu3RZdjLOg8ouexexeBBp94Cd8NNUDNgVr2i0GMhQk0Fr+xx9R/XXnPvvRZV9LpyNE+TFkEjwdB4MbCSdwvWsMzvWOKNjrCG9mCogxdEuOsWf8B7xkse3G97sQNmsjq/kVCaB4e2nI9z8m/x4bj+zvOJAI3n2EJSdvcwxx5dfh+zfDoynAtqW+I0Orbh6Xxzociy7fKNQtUCWp/BEgnRq/bSeZAwhVh/Jbv7YV9rl//CZtjb+O+G7nflH7SZPPqbd8LCNstgTb2QFG9HjvCch0jygMl4hi69GA29jza0cFDGvzbE2Crchng+PPO234xvEvdvWM77Qtn/qX0lEbZHPO1VZzp9xIk4fxEZbOmv/J47nQG4v2XTnwyBkk3jcfSYhNgR1u1c/tx0Ujzb/3xs/L7n0D98RXy5do1Dr94W6RFAhcs4kFu7KIZvrgkkvICswG2ssCw6rAHGRXuqhm+lNfu7odlh8ybT+joe3tfsu/u5FRP9Hh13xHfC137q4bfn7T7WtH/g8NerND8uZP9IqYPUSGTAKKMO2dCY7sBtAwn3FqyCTUHZQFq3m1nu1kLGrXUxuGMOh7R1gYehp6GQZ/X3PP1Wyz9/yl1LGGsVf6Dh37nneW6T/0m2fp56Ddav0Vopn2EjY+cRu5yFDN/GA9D/Zk1vFWnzY9+fAhQt5J8MkGuh40dHqOTHNJKtrnXaywq5gfH1jTeq6MfBmEH0pxeZDLQKcs7pfr9IP1l02GyYXV139ZQL9OTH1M77zZLaKreyS27UKTYSv/2+MeFkCBnQS5ARhyFT1UEgathrJLtlrCWM6grCO//+MVy1Q0K2Cn1d1Tzy7MP1ktxgjnFYoJCtVXodYu9ixyb8NAwSQ+JI45vZveZcqZkwzl8Bjt/h5YAh2x9P5YqvnIIeiCs7DDBZidlbtxJkDkzITPpUsQi9WN5iRHmOzunrg0dsugwtoH1k5hz4iSOKBd/7ERtNZEMqKE2nnjbH/xzuTxKtjwBwQDqo4KxPKGDp14aoPhQKozxPHdy1oqvUtgHEvBhy06hnX54nePdJy6JnZr+eFswyu8XniSrxdecNAR6WMj9j62LLi5XdtPVgwPr8ZFVgDzSVjKlGuSsfbRIEyrC2PrRDW13EkFPp8m9d1DBbwpRn9wFcc9lKJcWYiUazJJ3QKBj7sWDBZegySZmnqan2pMvb5Wvrgfo/3c2DIuQ7UtUg7MSj4xUI16blGhECfpiRpx7DhFXjdjdMuCdCVgZ+9EHBNwYevLZwyhFyci5/amD/U+lhLp5coiwfJIr54sMB3nzNGFs2y8mnpkGVsWPNPSbjH0tWhqjGjMLWC9AqGSkuDzjY4lRQBY3ddBrHxK3c0ChDG2BenTPEE6yCT3XxGyFHi4SnbmceXmUxGfgowZOYZvgZ+Nc68J5DU3CJOcPplgqpXmWWFPbXzeVUB2cSMmgdxhZlKu1Ix0i4sWD3jRzQ8Upg/Zf/N3ydWAI6N5Y2sVvt9IzfJMKoIiEeTTKB2GBmJI4vmPPP/H4gTO4odmEDsRBtzPacVMPoykbOSz+8RU7aATxBhVCjFg/nC54mJV4d/Fd5CxppHwIt4sxZmUKR9Cga+SmJF7eyZk0LC2p8TFcuIB12VvmKM//VTUqhjl8RZDVHfPdbrmCvXdQnNn2SJqa6N4tV7HAdcflhhgmcHdHj3F0L5yNO6jNCzYMxDH8FlImatnW1PkWLYKEbss1XCHZ88VrM4jsY7EDyueoRZj7CGUzri4BpYNmKy43Ke4XUTYYMZcpqDWiCQrIIVXn6wyaIBToKyE1l5Eb85exyyN15m6XIRXyzEh0EWEc/iROKkhytnmHQiAFq8ohFPhUwFRsNujThZ3fjnC3AYyKFlKAbh4rio6pQfdlAkng4+0c74QtfpnIs32wk045OXmMQY87Dvp2P6lD/GtOj6kDhyUr1MkGMqnW3EEVL9TRg/cpVt7EB0A+yx96m9l6PkQLjQVscPk74oQ6SRQ85AlOQq74DCck+8kRWXqhNB9Pnkh9iMV4bOM/RzUSRE1hOZCUK+4loPEw17xv33gZJKwRctvlRiwDVBpy5uQ6BPW2LQrzNpg86XFVC02FEwIYxWDgtXPOgsW4lHY524FHDyxXgl3tZZiJos4BGOuLnWU1yi/El+nxh3DCesBKnC1Fy6xaCw0EsJDePV8egp/CKvpCEqLlst+kHm2oNfuTuxXYEnnpV+8pJleXmjp7m31NgOr5vftPjGzEcjfQqD1DYzKdEhmouirZwyuS89oYSxd9qM9wcLlZT6GT8VVnh4Mr7wLs7xnnnxhiD/K/CWmQAeOOslHQmlvHrFNMvgZJ7ce+LNOfCt/QfOxOND8WTV9QAAAABJRU5ErkJggg==;" parent="49" vertex="1">
                    <mxGeometry x="260" y="20" width="50.21" height="50.21" as="geometry"/>
                </mxCell>
                <mxCell id="54" value="&lt;b&gt;AWS Chatbot&lt;/b&gt;" style="text;html=1;align=center;verticalAlign=middle;resizable=0;points=[];autosize=1;" parent="49" vertex="1">
                    <mxGeometry x="163.30577956989248" y="35.11" width="90" height="20" as="geometry"/>
                </mxCell>
                <mxCell id="22" value="" style="group" parent="1" vertex="1" connectable="0">
                    <mxGeometry x="70" y="30" width="310" height="370" as="geometry"/>
                </mxCell>
                <mxCell id="8" value="&lt;font color=&quot;#000000&quot;&gt;ap-northeast-1&lt;/font&gt;" style="outlineConnect=0;gradientColor=none;html=1;whiteSpace=wrap;fontSize=12;fontStyle=0;shape=mxgraph.aws4.group;grIcon=mxgraph.aws4.group_region;strokeColor=#879196;fillColor=none;verticalAlign=top;align=left;spacingLeft=30;fontColor=#879196;dashed=1;" parent="22" vertex="1">
                    <mxGeometry width="310" height="370" as="geometry"/>
                </mxCell>
                <mxCell id="7" value="" style="outlineConnect=0;dashed=0;verticalLabelPosition=bottom;verticalAlign=top;align=center;html=1;shape=mxgraph.aws3.kms;fillColor=#759C3E;gradientColor=none;" parent="22" vertex="1">
                    <mxGeometry x="250" y="260.01" width="46.5" height="56.53" as="geometry"/>
                </mxCell>
                <mxCell id="9" value="" style="outlineConnect=0;fontColor=#232F3E;gradientColor=#F34482;gradientDirection=north;fillColor=#BC1356;strokeColor=#ffffff;dashed=0;verticalLabelPosition=bottom;verticalAlign=top;align=center;html=1;fontSize=12;fontStyle=0;aspect=fixed;shape=mxgraph.aws4.resourceIcon;resIcon=mxgraph.aws4.eventbridge;" parent="22" vertex="1">
                    <mxGeometry x="140" y="160" width="58" height="58" as="geometry"/>
                </mxCell>
                <mxCell id="17" style="edgeStyle=orthogonalEdgeStyle;rounded=0;orthogonalLoop=1;jettySize=auto;html=1;" parent="22" source="10" target="9" edge="1">
                    <mxGeometry relative="1" as="geometry"/>
                </mxCell>
                <mxCell id="10" value="" style="outlineConnect=0;fontColor=#232F3E;gradientColor=#F54749;gradientDirection=north;fillColor=#C7131F;strokeColor=#ffffff;dashed=0;verticalLabelPosition=bottom;verticalAlign=top;align=center;html=1;fontSize=12;fontStyle=0;aspect=fixed;shape=mxgraph.aws4.resourceIcon;resIcon=mxgraph.aws4.guardduty;" parent="22" vertex="1">
                    <mxGeometry x="130.00000000000003" y="50" width="78" height="78" as="geometry"/>
                </mxCell>
                <mxCell id="11" value="&lt;b&gt;Amazon&lt;br&gt;GuardDuty&lt;/b&gt;" style="text;html=1;align=center;verticalAlign=middle;resizable=0;points=[];autosize=1;" parent="22" vertex="1">
                    <mxGeometry x="30" y="74" width="80" height="30" as="geometry"/>
                </mxCell>
                <mxCell id="12" value="&lt;b&gt;EventBridge&lt;br&gt;(CloudWatch Event)&lt;/b&gt;" style="text;html=1;align=center;verticalAlign=middle;resizable=0;points=[];autosize=1;" parent="22" vertex="1">
                    <mxGeometry x="5" y="174" width="130" height="30" as="geometry"/>
                </mxCell>
                <mxCell id="13" value="" style="outlineConnect=0;fontColor=#232F3E;gradientColor=#F34482;gradientDirection=north;fillColor=#BC1356;strokeColor=#ffffff;dashed=0;verticalLabelPosition=bottom;verticalAlign=top;align=center;html=1;fontSize=12;fontStyle=0;aspect=fixed;shape=mxgraph.aws4.resourceIcon;resIcon=mxgraph.aws4.sns;" parent="22" vertex="1">
                    <mxGeometry x="130" y="249.26999999999998" width="78" height="78" as="geometry"/>
                </mxCell>
                <mxCell id="20" style="edgeStyle=orthogonalEdgeStyle;rounded=0;orthogonalLoop=1;jettySize=auto;html=1;" parent="22" source="7" target="13" edge="1">
                    <mxGeometry relative="1" as="geometry"/>
                </mxCell>
                <mxCell id="18" style="edgeStyle=orthogonalEdgeStyle;rounded=0;orthogonalLoop=1;jettySize=auto;html=1;" parent="22" source="9" target="13" edge="1">
                    <mxGeometry relative="1" as="geometry"/>
                </mxCell>
                <mxCell id="15" value="&lt;b&gt;Amazon SNS&lt;/b&gt;" style="text;html=1;align=center;verticalAlign=middle;resizable=0;points=[];autosize=1;" parent="22" vertex="1">
                    <mxGeometry x="25" y="278.27" width="90" height="20" as="geometry"/>
                </mxCell>
                <mxCell id="19" value="&lt;b&gt;AWS KMS&lt;/b&gt;" style="text;html=1;align=center;verticalAlign=middle;resizable=0;points=[];autosize=1;" parent="22" vertex="1">
                    <mxGeometry x="238.25" y="229.26999999999998" width="70" height="20" as="geometry"/>
                </mxCell>
                <mxCell id="37" value="" style="group" parent="1" vertex="1" connectable="0">
                    <mxGeometry x="397" y="158" width="180" height="240" as="geometry"/>
                </mxCell>
                <mxCell id="23" value="" style="group" parent="37" vertex="1" connectable="0">
                    <mxGeometry width="180" height="240" as="geometry"/>
                </mxCell>
                <mxCell id="24" value="&lt;font color=&quot;#000000&quot;&gt;ap-northeast-2&lt;/font&gt;" style="outlineConnect=0;gradientColor=none;html=1;whiteSpace=wrap;fontSize=12;fontStyle=0;shape=mxgraph.aws4.group;grIcon=mxgraph.aws4.group_region;strokeColor=#879196;fillColor=none;verticalAlign=top;align=left;spacingLeft=30;fontColor=#879196;dashed=1;" parent="23" vertex="1">
                    <mxGeometry width="150" height="240" as="geometry"/>
                </mxCell>
                <mxCell id="25" value="" style="outlineConnect=0;dashed=0;verticalLabelPosition=bottom;verticalAlign=top;align=center;html=1;shape=mxgraph.aws3.kms;fillColor=#759C3E;gradientColor=none;" parent="23" vertex="1">
                    <mxGeometry x="110.00029032258067" y="184.30513513513515" width="27" height="36.66810810810811" as="geometry"/>
                </mxCell>
                <mxCell id="26" value="" style="outlineConnect=0;fontColor=#232F3E;gradientColor=#F34482;gradientDirection=north;fillColor=#BC1356;strokeColor=#ffffff;dashed=0;verticalLabelPosition=bottom;verticalAlign=top;align=center;html=1;fontSize=12;fontStyle=0;aspect=fixed;shape=mxgraph.aws4.resourceIcon;resIcon=mxgraph.aws4.eventbridge;" parent="23" vertex="1">
                    <mxGeometry x="50.807322580645156" y="111.2937837837838" width="33.67741935483871" height="33.67741935483871" as="geometry"/>
                </mxCell>
                <mxCell id="27" style="edgeStyle=orthogonalEdgeStyle;rounded=0;orthogonalLoop=1;jettySize=auto;html=1;" parent="23" source="28" target="26" edge="1">
                    <mxGeometry relative="1" as="geometry"/>
                </mxCell>
                <mxCell id="28" value="" style="outlineConnect=0;fontColor=#232F3E;gradientColor=#F54749;gradientDirection=north;fillColor=#C7131F;strokeColor=#ffffff;dashed=0;verticalLabelPosition=bottom;verticalAlign=top;align=center;html=1;fontSize=12;fontStyle=0;aspect=fixed;shape=mxgraph.aws4.resourceIcon;resIcon=mxgraph.aws4.guardduty;" parent="23" vertex="1">
                    <mxGeometry x="45.00087096774195" y="32.432432432432435" width="45.29032258064516" height="45.29032258064516" as="geometry"/>
                </mxCell>
                <mxCell id="31" value="" style="outlineConnect=0;fontColor=#232F3E;gradientColor=#F34482;gradientDirection=north;fillColor=#BC1356;strokeColor=#ffffff;dashed=0;verticalLabelPosition=bottom;verticalAlign=top;align=center;html=1;fontSize=12;fontStyle=0;aspect=fixed;shape=mxgraph.aws4.resourceIcon;resIcon=mxgraph.aws4.sns;" parent="23" vertex="1">
                    <mxGeometry x="45.00087096774194" y="179.99864864864864" width="45.29032258064516" height="45.29032258064516" as="geometry"/>
                </mxCell>
                <mxCell id="32" style="edgeStyle=orthogonalEdgeStyle;rounded=0;orthogonalLoop=1;jettySize=auto;html=1;" parent="23" source="25" target="31" edge="1">
                    <mxGeometry relative="1" as="geometry"/>
                </mxCell>
                <mxCell id="33" style="edgeStyle=orthogonalEdgeStyle;rounded=0;orthogonalLoop=1;jettySize=auto;html=1;" parent="23" source="26" target="31" edge="1">
                    <mxGeometry relative="1" as="geometry"/>
                </mxCell>
                <mxCell id="68" value="&lt;b&gt;・・・&lt;br&gt;（全リージョン分）&lt;/b&gt;" style="text;html=1;align=center;verticalAlign=middle;resizable=0;points=[];autosize=1;" parent="1" vertex="1">
                    <mxGeometry x="540" y="263" width="120" height="30" as="geometry"/>
                </mxCell>
                <mxCell id="71" value="" style="group" parent="1" vertex="1" connectable="0">
                    <mxGeometry x="660" y="160" width="195" height="300" as="geometry"/>
                </mxCell>
                <mxCell id="72" value="" style="group" parent="71" vertex="1" connectable="0">
                    <mxGeometry width="195" height="300" as="geometry"/>
                </mxCell>
                <mxCell id="73" value="&lt;font color=&quot;#000000&quot;&gt;us-east-1&lt;/font&gt;" style="outlineConnect=0;gradientColor=none;html=1;whiteSpace=wrap;fontSize=12;fontStyle=0;shape=mxgraph.aws4.group;grIcon=mxgraph.aws4.group_region;strokeColor=#879196;fillColor=none;verticalAlign=top;align=left;spacingLeft=30;fontColor=#879196;dashed=1;" parent="72" vertex="1">
                    <mxGeometry width="180" height="300" as="geometry"/>
                </mxCell>
                <mxCell id="74" value="" style="outlineConnect=0;dashed=0;verticalLabelPosition=bottom;verticalAlign=top;align=center;html=1;shape=mxgraph.aws3.kms;fillColor=#759C3E;gradientColor=none;" parent="72" vertex="1">
                    <mxGeometry x="110.00029032258067" y="184.30513513513515" width="27" height="36.66810810810811" as="geometry"/>
                </mxCell>
                <mxCell id="75" value="" style="outlineConnect=0;fontColor=#232F3E;gradientColor=#F34482;gradientDirection=north;fillColor=#BC1356;strokeColor=#ffffff;dashed=0;verticalLabelPosition=bottom;verticalAlign=top;align=center;html=1;fontSize=12;fontStyle=0;aspect=fixed;shape=mxgraph.aws4.resourceIcon;resIcon=mxgraph.aws4.eventbridge;" parent="72" vertex="1">
                    <mxGeometry x="50.807322580645156" y="111.2937837837838" width="33.67741935483871" height="33.67741935483871" as="geometry"/>
                </mxCell>
                <mxCell id="76" style="edgeStyle=orthogonalEdgeStyle;rounded=0;orthogonalLoop=1;jettySize=auto;html=1;" parent="72" source="77" target="75" edge="1">
                    <mxGeometry relative="1" as="geometry"/>
                </mxCell>
                <mxCell id="77" value="" style="outlineConnect=0;fontColor=#232F3E;gradientColor=#F54749;gradientDirection=north;fillColor=#C7131F;strokeColor=#ffffff;dashed=0;verticalLabelPosition=bottom;verticalAlign=top;align=center;html=1;fontSize=12;fontStyle=0;aspect=fixed;shape=mxgraph.aws4.resourceIcon;resIcon=mxgraph.aws4.guardduty;" parent="72" vertex="1">
                    <mxGeometry x="45.00087096774195" y="32.432432432432435" width="45.29032258064516" height="45.29032258064516" as="geometry"/>
                </mxCell>
                <mxCell id="78" value="" style="outlineConnect=0;fontColor=#232F3E;gradientColor=#F34482;gradientDirection=north;fillColor=#BC1356;strokeColor=#ffffff;dashed=0;verticalLabelPosition=bottom;verticalAlign=top;align=center;html=1;fontSize=12;fontStyle=0;aspect=fixed;shape=mxgraph.aws4.resourceIcon;resIcon=mxgraph.aws4.sns;" parent="72" vertex="1">
                    <mxGeometry x="45.00087096774194" y="179.99864864864864" width="45.29032258064516" height="45.29032258064516" as="geometry"/>
                </mxCell>
                <mxCell id="79" style="edgeStyle=orthogonalEdgeStyle;rounded=0;orthogonalLoop=1;jettySize=auto;html=1;" parent="72" source="74" target="78" edge="1">
                    <mxGeometry relative="1" as="geometry"/>
                </mxCell>
                <mxCell id="80" style="edgeStyle=orthogonalEdgeStyle;rounded=0;orthogonalLoop=1;jettySize=auto;html=1;" parent="72" source="75" target="78" edge="1">
                    <mxGeometry relative="1" as="geometry"/>
                </mxCell>
                <mxCell id="66" value="" style="outlineConnect=0;fontColor=#232F3E;gradientColor=#F34482;gradientDirection=north;fillColor=#BC1356;strokeColor=#ffffff;dashed=0;verticalLabelPosition=bottom;verticalAlign=top;align=center;html=1;fontSize=12;fontStyle=0;aspect=fixed;shape=mxgraph.aws4.resourceIcon;resIcon=mxgraph.aws4.cloudwatch;" parent="72" vertex="1">
                    <mxGeometry x="125" y="255.29" width="40" height="40" as="geometry"/>
                </mxCell>
                <mxCell id="81" value="&lt;b&gt;CloudWatch &lt;br&gt;Logs&lt;/b&gt;" style="text;html=1;align=center;verticalAlign=middle;resizable=0;points=[];autosize=1;" parent="72" vertex="1">
                    <mxGeometry x="100" y="225.29" width="90" height="30" as="geometry"/>
                </mxCell>
                <mxCell id="83" value="&lt;b&gt;ログ通知&lt;/b&gt;" style="edgeStyle=orthogonalEdgeStyle;rounded=0;orthogonalLoop=1;jettySize=auto;html=1;endArrow=block;endFill=1;" parent="1" source="61" target="66" edge="1">
                    <mxGeometry relative="1" as="geometry"/>
                </mxCell>
                <mxCell id="85" style="edgeStyle=orthogonalEdgeStyle;rounded=0;orthogonalLoop=1;jettySize=auto;html=1;entryX=0.5;entryY=0;entryDx=0;entryDy=0;endArrow=block;endFill=1;" parent="1" source="31" target="61" edge="1">
                    <mxGeometry relative="1" as="geometry"/>
                </mxCell>
                <mxCell id="86" style="edgeStyle=orthogonalEdgeStyle;rounded=0;orthogonalLoop=1;jettySize=auto;html=1;entryX=0.5;entryY=0;entryDx=0;entryDy=0;endArrow=block;endFill=1;" parent="1" source="78" target="61" edge="1">
                    <mxGeometry relative="1" as="geometry">
                        <Array as="points">
                            <mxPoint x="728" y="440"/>
                            <mxPoint x="465" y="440"/>
                        </Array>
                    </mxGeometry>
                </mxCell>
                <mxCell id="88" style="edgeStyle=orthogonalEdgeStyle;rounded=0;orthogonalLoop=1;jettySize=auto;html=1;entryX=0.5;entryY=0;entryDx=0;entryDy=0;shadow=0;" parent="1" source="13" target="61" edge="1">
                    <mxGeometry relative="1" as="geometry">
                        <Array as="points">
                            <mxPoint x="239" y="440"/>
                            <mxPoint x="465" y="440"/>
                        </Array>
                    </mxGeometry>
                </mxCell>
            </root>
        </mxGraphModel>
    </diagram>
</mxfile>
